<?xml version="1.0"?>
<svg width="100" height="100" xmlns="http://www.w3.org/2000/svg" xmlns:svg="http://www.w3.org/2000/svg">
 <!-- Black background -->
 <!-- White pen/pencil icon -->
 <!-- Pencil top/eraser -->
 <g class="layer">
  <title>Layer 1</title>
  <rect fill="#000000" height="100" id="svg_1" width="100"/>
  <path d="m65,35l-5,-5l-30,30l-5,10l10,-5l30,-30z" fill="none" id="svg_2" stroke="white" stroke-linejoin="round" stroke-width="3"/>
  <rect fill="none" height="0" id="svg_8" opacity="0.5" stroke="#1c0a0a" width="0" x="71.2" y="28.4"/>
  <line fill="none" id="svg_5" stroke="#f7f7f7" stroke-width="5" x1="32.2" x2="72.2" y1="72.4" y2="71.4"/>
  <path d="m57.27,20.93c0.25,0.7 0.73,1.59 1.27,2.26c0.59,0.73 1.1,1.43 1.68,2.02c0.64,0.66 1.18,1.4 1.83,2.05c0.61,0.6 1.31,1.16 1.81,1.81c0.52,0.67 1.28,1.33 1.91,1.9c0.63,0.58 1.31,1.16 2.05,1.73c0.66,0.5 1.41,0.95 2.12,1.44c0.7,0.48 1.33,1.13 2,1.63c0.74,0.56 1.57,0.9 2.27,1.43c0.71,0.54 1.4,0.98 2.05,1.5c0.64,0.51 1.11,1.19 1.68,1.83c0.42,0.48 1.65,1.11 1.33,1.85c-0.29,0.67 -1.33,-0.26 -2.16,-0.61c-0.8,-0.34 -1.53,-0.62 -2.38,-0.84c-0.81,-0.21 -1.47,-0.6 -2.32,-0.76c-0.86,-0.17 -1.75,-0.24 -2.62,-0.24l-0.19,-0.79" fill="none" id="svg_11" stroke="#1c0a0a" transform="matrix(1 0 0 1 0 0)"/>
 </g>
</svg>